<?xml version="1.0" encoding="utf-8"?>
<!-- Generator: Adobe Illustrator 16.0.3, SVG Export Plug-In . SVG Version: 6.00 Build 0)  -->
<!DOCTYPE svg PUBLIC "-//W3C//DTD SVG 1.1//EN" "http://www.w3.org/Graphics/SVG/1.1/DTD/svg11.dtd">
<svg version="1.1" id="Layer_1" xmlns="http://www.w3.org/2000/svg" xmlns:xlink="http://www.w3.org/1999/xlink" x="0px" y="0px"
	 width="100px" height="100px" viewBox="0 0 100 100" style="enable-background:new 0 0 100 100;" xml:space="preserve">
<g id="BG">
</g>
<g id="Layer_1_1_">
	<g>
		<path d="M50.321,69.51l-0.365,4.366c2.405,0.201,5.097,0.067,7.884-0.729c2.33-0.666,4.727-1.795,7.078-3.574l-2.67-3.567
			C58.098,69.139,53.829,69.786,50.321,69.51z"/>
		<path d="M37.424,30.668c0.299-0.106,0.605-0.232,0.917-0.396c1.979-1.04,3.852-1.824,5.585-2.357
			c-4.388-7.362-4.034-15.24-3.427-19.296C32.878,14.931,36.087,26.767,37.424,30.668z"/>
		<path d="M46.53,88.171l3.249-38.82l-2.155-2.878c-0.324,0.126-0.663,0.24-1.019,0.342c-2.318,0.663-5.139,0.769-8.055,0.395
			l-3.348,40.015c-0.262,3.127,2.062,5.875,5.189,6.137l0,0c0.706,0.06,1.393-0.014,2.036-0.197
			C44.635,92.533,46.328,90.593,46.53,88.171z"/>
		<path d="M74.965,79.284c1.493,1.995,4.016,2.756,6.27,2.11c0.701-0.199,1.375-0.535,1.984-1.012
			c2.496-1.949,2.977-5.535,1.084-8.076l-30.761-41.27c0,0-1.979-3.011-8.558-1.129c-1.589,0.454-3.447,1.194-5.61,2.331
			c-0.574,0.302-1.132,0.527-1.672,0.681C27.794,35.753,23.65,14.967,23.65,14.967s-4.781,6.799-1.501,18.454
			c2.7,9.594,16.937,13.233,23.846,11.257c0.895-0.256,1.667-0.605,2.274-1.049L74.965,79.284z M43.705,39.236
			c-1.091,0.312-2.229-0.319-2.541-1.411c-0.312-1.091,0.32-2.229,1.411-2.542c1.092-0.312,2.229,0.32,2.541,1.411
			C45.429,37.786,44.797,38.924,43.705,39.236z"/>
	</g>
</g>
</svg>
