<?xml version="1.0" encoding="utf-8"?>
<!-- Generator: Adobe Illustrator 16.0.3, SVG Export Plug-In . SVG Version: 6.00 Build 0)  -->
<!DOCTYPE svg PUBLIC "-//W3C//DTD SVG 1.1//EN" "http://www.w3.org/Graphics/SVG/1.1/DTD/svg11.dtd">
<svg version="1.1" id="Ñëîé_1" xmlns="http://www.w3.org/2000/svg" xmlns:xlink="http://www.w3.org/1999/xlink" x="0px" y="0px"
	 width="100px" height="100px" viewBox="0 0 100 100" style="enable-background:new 0 0 100 100;" xml:space="preserve">
<g>
	<path d="M32.063,93.167h-2.311c-0.08,0-0.145-0.065-0.145-0.146v-1.334c0-0.08,0.064-0.146,0.145-0.146h2.311
		c0.08,0,0.145,0.065,0.145,0.146v1.334C32.207,93.102,32.143,93.167,32.063,93.167z"/>
	<path d="M45.332,94.061h-7.759c-0.728,0-1.405-0.373-1.791-0.988l-0.895-1.417c-0.193-0.306-0.553-0.495-0.942-0.495h-4.174
		c-0.09,0-0.164-0.074-0.164-0.165l0,0c0-0.091,0.074-0.166,0.164-0.166H43.36c1.337,0,2.422,1.081,2.427,2.417l0.002,0.355
		C45.789,93.854,45.585,94.061,45.332,94.061z"/>
	<g>
		<path d="M35.768,93.725H20.353H35.768z"/>
		<path d="M35.727,93.969H20.61c-0.115,0-0.223-0.074-0.25-0.186c-0.021-0.09,0.008-0.174,0.065-0.232
			c0.043-0.043,0.104-0.07,0.17-0.07H35.24c0.201,0,0.391,0.092,0.525,0.242c0.001,0,0.002,0,0.002,0.002
			c0.015,0.017,0.028,0.031,0.044,0.047C35.88,93.85,35.829,93.969,35.727,93.969z"/>
	</g>
	<path d="M86.791,7.648c-0.107-0.264-0.266-0.504-0.473-0.711c-0.284-0.286-0.637-0.493-1.021-0.609l-0.311-0.092
		c-0.657-0.197-1.342-0.295-2.027-0.295h-5.21c-0.935,0-1.864,0.085-2.782,0.26c0,0-0.57,0.111-0.996,0.193
		c-0.295,0.058-0.586,0.129-0.871,0.217l-0.709,0.218c-0.242,0.102-0.389,0.179-0.647,0.389c-0.269,0.214-0.466,0.503-0.652,0.792
		l-17.45,27.151c-0.19,0.298-0.105,0.695,0.191,0.886l1.636,1.05c0.298,0.192,0.694,0.105,0.886-0.192l13.535-21.059
		c1.262-1.964,3.437-3.151,5.771-3.151h7.083c2.323,0,4.211-1.884,4.216-4.208C86.959,8.197,86.9,7.912,86.791,7.648z M85.227,10.27
		c-0.369,0.745-1.092,1.249-1.916,1.337c-1.135,0.122-2.272,0.183-3.414,0.183h-4.35c-0.775,0-1.546-0.129-2.279-0.381
		c-0.494-0.17-0.881-0.556-1.053-1.048l-0.029-0.081c-0.191-0.552-0.088-1.164,0.276-1.621l0.16-0.204
		c0.537-0.675,1.317-1.112,2.175-1.216l1.188-0.146c0.524-0.065,1.055-0.096,1.584-0.096h5.344c0.548,0,1.09,0.108,1.594,0.322
		c0.409,0.17,0.735,0.495,0.908,0.902c0.091,0.211,0.137,0.438,0.137,0.667C85.55,9.367,85.438,9.84,85.227,10.27z M33.919,76.309
		c-0.691-1.75-0.496-3.727,0.52-5.31l20.813-32.381c0.189-0.298,0.104-0.695-0.193-0.886l-1.634-1.05
		c-0.299-0.191-0.694-0.105-0.887,0.192L30.679,70.885c-1.087,1.691-2.008,3.483-2.749,5.352l-0.992,2.509
		c-1.142,2.879-1.727,5.948-1.727,9.045v1.976c0,0.393,0.316,0.711,0.71,0.711h9.973c0.392,0,0.711-0.318,0.711-0.711v-1.988
		c0-3.088-0.583-6.148-1.718-9.022L33.919,76.309z"/>
	<path d="M77.568,7.301h3.846c0.163,0,0.295,0.133,0.295,0.296l0,0c0,0.153-0.118,0.282-0.271,0.294l-6.283,0.517
		c-0.33,0.028-0.615-0.234-0.615-0.567l0,0c0-0.147,0.107-0.274,0.253-0.293c0.017-0.002,0.028-0.004,0.044-0.006l1.186-0.146
		C76.532,7.333,77.053,7.301,77.568,7.301z"/>
</g>
</svg>
