<?xml version="1.0" encoding="utf-8"?>
<!-- Generator: Adobe Illustrator 16.0.3, SVG Export Plug-In . SVG Version: 6.00 Build 0)  -->
<!DOCTYPE svg PUBLIC "-//W3C//DTD SVG 1.1//EN" "http://www.w3.org/Graphics/SVG/1.1/DTD/svg11.dtd">
<svg version="1.1" id="_x31_" xmlns="http://www.w3.org/2000/svg" xmlns:xlink="http://www.w3.org/1999/xlink" x="0px" y="0px"
	 width="100px" height="100px" viewBox="0 0 100 100" style="enable-background:new 0 0 100 100;" xml:space="preserve">
<g>
	<path d="M50.479,36.141h3.591v-3.397h-3.591V36.141L50.479,36.141z M18.451,23.225c-1.05,2.38-1.875,4.879-2.479,7.653
		c-0.832,3.815-1.244,8.16-1.244,13.442c0,3.071,1.128,5.092,2.657,6.102c0.666,0.439,1.417,0.692,2.184,0.758
		c0.774,0.063,1.562-0.061,2.289-0.371c1.606-0.689,2.967-2.316,3.391-4.885c0.557-3.365,1.735-6.011,3.38-7.765
		c1.843-1.966,4.289-2.825,6.954-2.385c1.854,0.308,3.843,1.245,5.891,2.883c1.33-0.877,2.811-1.556,4.401-1.988v-5.236L39.447,26.1
		l1.546-7.073h-6.388v0.575H31.81v2.005h-5.897v-2.005h-5.005l-1.991,3.863L18.451,23.225L18.451,23.225z M38.769,40.922
		c-1.35-0.99-2.605-1.56-3.739-1.747c-1.544-0.256-2.826,0.209-3.892,1.346c-1.181,1.259-2.049,3.286-2.49,5.956
		c-0.64,3.869-2.827,6.38-5.44,7.501c-1.255,0.537-2.602,0.752-3.922,0.641c-1.328-0.112-2.636-0.553-3.803-1.323
		c-2.423-1.599-4.209-4.598-4.209-8.975c0-5.527,0.439-10.109,1.325-14.171c0.671-3.076,1.6-5.85,2.789-8.504l-0.554-0.285
		l3.279-6.363h16.492v0.575h43.708h0.146l0.151,0.027l9.193,1.63l-0.594,3.399l-9.041-1.603H63.559l1.545,7.073l-6.428,5.333v5.236
		c6.618,1.798,11.319,7.847,11.319,14.768v27.352c0,3.418-2.797,6.215-6.216,6.215H40.77c-3.423,0-6.215-2.792-6.215-6.215v-27.35
		C34.555,47.417,36.142,43.691,38.769,40.922L38.769,40.922z"/>
</g>
</svg>
