<?xml version="1.0" encoding="utf-8"?>
<!-- Generator: Adobe Illustrator 14.0.0, SVG Export Plug-In . SVG Version: 6.00 Build 43363)  -->
<!DOCTYPE svg PUBLIC "-//W3C//DTD SVG 1.1//EN" "http://www.w3.org/Graphics/SVG/1.1/DTD/svg11.dtd">
<svg version="1.1" id="Placeholder" xmlns="http://www.w3.org/2000/svg" xmlns:xlink="http://www.w3.org/1999/xlink" x="0px" y="0px"
	 width="66.137px" height="66.136px" viewBox="0 0 66.137 66.136" style="enable-background:new 0 0 66.137 66.136;"
	 xml:space="preserve">
<path style="fill:#FFFFFF;" d="M33.014,3.757C15.39,3.508,3.282,22.978,11.927,37.846c4.723,8.122,10.364,15.428,16.714,22.259
	c2.98,3.207,6.044,3.072,8.978-0.08c6.24-6.708,11.817-13.875,16.451-21.846C63.18,22.506,50.291,3.368,33.014,3.757z
	 M33.074,16.589c1.585,0,2.219,0.979,2.219,2.31c0,1.544-0.503,2.292-2.249,2.292c-1.379,0-2.193-0.898-2.193-2.301
	C30.849,17.428,31.534,16.589,33.074,16.589z M35.447,38.214c0,1.437-0.574,1.641-2.257,1.641c-1.984,0-2.559-0.412-2.559-1.791
	c0-2.038,0.064-7.288,0.064-9.911c0-1.384,0.415-2.621,2.266-2.705c2.116-0.095,2.491,1.366,2.491,2.917
	C35.454,30.357,35.447,36.819,35.447,38.214z"/>
</svg>
