<svg xmlns="http://www.w3.org/2000/svg" xmlns:xlink="http://www.w3.org/1999/xlink" version="1.1" x="0px" y="0px" viewBox="0 0 100 125" enable-background="new 0 0 100 100" xml:space="preserve"><path d="M64.152,15.257c-0.99-0.242-2.018-0.366-3.052-0.366c-3.578,0-6.619,1.452-8.633,2.413  c-0.656,0.313-1.471,0.703-1.663,0.736c-0.264-0.033-1.08-0.423-1.734-0.735c-2.013-0.96-5.053-2.413-8.633-2.413  c-1.034,0-2.06,0.124-3.052,0.366c-7.096,1.736-10.848,8.575-10.848,19.777c0,8.515,4.373,14.556,4.559,14.809  c0.126,0.171,0.288,0.313,0.474,0.415c0.165,0.091,1.059,0.522,3.676,0.942c-0.052,0.152-0.087,0.313-0.087,0.482v1.813  c0,1.972,1.677,3.575,3.739,3.575h0.668v3.903l-1.056,0.114c-0.804,0.088-1.384,0.81-1.297,1.612  c0.082,0.749,0.715,1.305,1.452,1.305c0.053,0,0.106-0.004,0.159-0.01l0.742-0.08v3.097l-1.057,0.114  c-0.803,0.087-1.383,0.809-1.296,1.611c0.082,0.749,0.715,1.305,1.452,1.305c0.053,0,0.106-0.003,0.16-0.009l0.741-0.08v3.094  l-1.056,0.114c-0.804,0.088-1.384,0.81-1.297,1.611c0.082,0.75,0.715,1.305,1.452,1.305c0.053,0,0.106-0.003,0.159-0.009  l0.845-0.091c0.183,0.768,0.602,1.554,1.164,2.081l8.062,6.79c0.499,0.469,1.145,0.701,1.781,0.701c0.604,0,1.202-0.21,1.654-0.625  l8.409-6.917c0.714-0.654,1.231-1.843,1.231-2.828v-1.622l1.056-0.115c0.804-0.087,1.385-0.809,1.297-1.612  c-0.088-0.803-0.814-1.384-1.61-1.295l-0.742,0.08V67.52l1.057-0.114c0.803-0.087,1.384-0.809,1.296-1.611s-0.809-1.38-1.611-1.296  l-0.741,0.08v-3.094l1.056-0.114c0.804-0.088,1.385-0.81,1.297-1.612c-0.088-0.805-0.814-1.384-1.61-1.296l-0.742,0.08V57.07h0.668  c2.063,0,3.74-1.604,3.74-3.575v-1.813c0-0.17-0.035-0.33-0.088-0.481c2.618-0.421,3.512-0.852,3.678-0.943  c0.187-0.102,0.349-0.244,0.474-0.415C70.629,49.59,75,43.549,75,35.034C75,23.832,71.249,16.993,64.152,15.257z M59.046,75.18  c0,0.171-0.16,0.554-0.224,0.621l-8.162,6.713l-7.88-6.636c-0.045-0.044-0.094-0.129-0.14-0.224l16.406-1.78V75.18z M59.046,70.933  l-16.555,1.797v-3.095l16.555-1.797V70.933z M59.046,64.896l-16.555,1.797v-3.096l16.555-1.796V64.896z M59.046,58.86l-16.555,1.796  V57.07h16.555V58.86z M63.454,51.683v1.813c0,0.352-0.373,0.65-0.815,0.65H38.898c-0.434,0-0.815-0.305-0.815-0.65v-1.813  c0-0.04-0.008-0.077-0.012-0.116c2.879,0.295,6.956,0.523,12.698,0.523c5.74,0,9.819-0.229,12.698-0.523  C63.463,51.605,63.454,51.643,63.454,51.683z M68.309,47.783c-1.064,0.349-5.252,1.382-17.54,1.382  c-12.384,0-16.538-1.05-17.533-1.375c-0.834-1.284-3.773-6.268-3.773-12.755c0-6.764,1.496-15.194,8.618-16.937  c0.765-0.187,1.558-0.282,2.357-0.282c2.917,0,5.493,1.229,7.373,2.128c1.24,0.591,2.135,1.019,2.958,1.019  c0.822,0,1.72-0.428,2.959-1.02c1.881-0.898,4.457-2.127,7.373-2.127c0.8,0,1.593,0.095,2.357,0.282  c7.122,1.743,8.617,10.172,8.617,16.937C72.075,41.512,69.146,46.491,68.309,47.783z"/></svg>