<?xml version="1.0" encoding="utf-8"?>
<!-- Generator: Adobe Illustrator 16.0.3, SVG Export Plug-In . SVG Version: 6.00 Build 0)  -->
<!DOCTYPE svg PUBLIC "-//W3C//DTD SVG 1.1//EN" "http://www.w3.org/Graphics/SVG/1.1/DTD/svg11.dtd">
<svg version="1.1" id="_x31_" xmlns="http://www.w3.org/2000/svg" xmlns:xlink="http://www.w3.org/1999/xlink" x="0px" y="0px"
	 width="100px" height="100px" viewBox="0 0 100 100" style="enable-background:new 0 0 100 100;" xml:space="preserve">
<g>
	<path d="M50.654,16.341c0.18,2.14,0.609,3.657,1.158,4.715c0.767,1.478,1.678,1.862,2.248,1.862c0.572,0,1.481-0.385,2.248-1.862
		c0.549-1.059,0.979-2.576,1.158-4.715H50.654L50.654,16.341z M56.363,27.066v23.625l32.16,18.584l-1.998,3.479L67.37,61.695
		l15.278,15.277l-2.851,2.851L63.896,63.92l11.049,19.135l-3.479,2.016L60.092,65.369l5.824,21.736l-3.889,1.039l-5.951-22.213
		v22.332h-4.029V65.93l-5.953,22.215l-3.888-1.039l5.825-21.737L36.655,85.07l-3.478-2.016l11.05-19.135L28.322,79.823l-2.85-2.851
		l15.279-15.279L21.595,72.754l-1.998-3.479l32.161-18.584V27.066c-1.405-0.564-2.9-1.729-4.03-3.906
		c-1.032-1.991-1.769-4.906-1.769-9.122c0-1.272,1.03-2.303,2.302-2.303h11.598c1.271,0,2.304,1.031,2.304,2.303
		c0,4.216-0.737,7.131-1.771,9.122C59.266,25.337,57.77,26.502,56.363,27.066z"/>
</g>
</svg>
