<?xml version="1.0" encoding="utf-8"?>
<!-- Generator: Adobe Illustrator 16.0.3, SVG Export Plug-In . SVG Version: 6.00 Build 0)  -->
<svg version="1.2" baseProfile="tiny" id="Layer_1" xmlns="http://www.w3.org/2000/svg" xmlns:xlink="http://www.w3.org/1999/xlink"
	 x="0px" y="0px" width="66.136px" height="66.136px" viewBox="0 0 66.136 66.136" xml:space="preserve">
<g>
	<path fill-rule="evenodd" fill="#FEFEFE" d="M66.081,33.063c0,10.147-0.063,20.296,0.053,30.442
		c0.023,1.996-0.223,2.644-2.481,2.631c-20.294-0.117-40.589-0.085-60.884-0.04C1.024,66.1-0.018,66.288,0,63.764
		C0.144,43.303,0.143,22.841,0.001,2.381c-0.018-2.507,0.996-2.349,2.757-2.344C23.053,0.085,43.348,0.115,63.643,0
		c2.24-0.013,2.516,0.604,2.492,2.621C66.016,12.767,66.081,22.915,66.081,33.063z"/>
	<path fill-rule="evenodd" d="M33.014,3.757C50.291,3.368,63.18,22.506,54.069,38.179c-4.634,7.971-10.211,15.138-16.451,21.846
		c-2.934,3.152-5.997,3.287-8.978,0.08c-6.349-6.831-11.991-14.136-16.713-22.259C3.282,22.978,15.39,3.508,33.014,3.757z"/>
	<path fill-rule="evenodd" fill="#FBFBFB" d="M35.447,38.214c0,1.437-0.574,1.641-2.257,1.641c-1.984,0-2.558-0.412-2.558-1.791
		c0-2.038,0.064-7.288,0.064-9.911c0-1.384,0.415-2.621,2.266-2.705c2.116-0.095,2.491,1.366,2.491,2.917
		C35.454,30.357,35.447,36.819,35.447,38.214z"/>
	<path fill-rule="evenodd" fill="#E8E8E8" d="M33.074,16.589c1.585,0,2.219,0.979,2.219,2.31c0,1.544-0.503,2.292-2.249,2.292
		c-1.379,0-2.194-0.898-2.194-2.301C30.849,17.428,31.534,16.589,33.074,16.589z"/>
</g>
</svg>
