<?xml version="1.0" encoding="utf-8"?>
<!-- Generator: Adobe Illustrator 16.0.3, SVG Export Plug-In . SVG Version: 6.00 Build 0)  -->
<!DOCTYPE svg PUBLIC "-//W3C//DTD SVG 1.1//EN" "http://www.w3.org/Graphics/SVG/1.1/DTD/svg11.dtd">
<svg version="1.1" id="Layer_1" xmlns="http://www.w3.org/2000/svg" xmlns:xlink="http://www.w3.org/1999/xlink" x="0px" y="0px"
	 width="100px" height="100px" viewBox="0 0 100 100" style="enable-background:new 0 0 100 100;" xml:space="preserve">
<g id="BG">
</g>
<g id="Layer_1_1_">
	<g>
		<path d="M49.999,70.955c0.776,0,1.504,0.381,1.944,1.021l1.945,2.826l0.854-1.238V65.41c1.241,0.722,2.683,1.136,4.224,1.136
			c4.65,0,8.422-3.771,8.422-8.421c0-0.002,0-0.003,0-0.006c0.614,0.143,1.254,0.221,1.911,0.221c4.652,0,8.423-3.771,8.423-8.422
			c0-2.64-1.216-4.996-3.117-6.541c1.938-1.542,3.183-3.92,3.183-6.591c0-4.303-3.229-7.851-7.397-8.357
			c0.068-0.426,0.104-0.863,0.104-1.309c0-4.651-3.771-8.422-8.422-8.422c-1.552,0-3.003,0.42-4.249,1.15
			c-0.467-4.208-4.035-7.481-8.369-7.481c-4.155,0-7.607,3.013-8.294,6.974c-0.996-0.414-2.087-0.644-3.231-0.644
			c-4.651,0-8.422,3.771-8.422,8.422c0,0.445,0.035,0.882,0.103,1.309c-4.168,0.506-7.398,4.054-7.398,8.357
			c0,2.671,1.245,5.049,3.184,6.591c-1.901,1.545-3.117,3.9-3.117,6.541c0,4.651,3.77,8.422,8.422,8.422
			c0.657,0,1.297-0.078,1.912-0.221c0,0.002,0,0.003,0,0.006c0,4.651,3.771,8.421,8.422,8.421c2.018,0,3.868-0.709,5.318-1.891
			v9.797l1.705-2.475C48.495,71.336,49.222,70.955,49.999,70.955z"/>
		<path d="M89.346,73.014c-0.101-0.146-0.265-0.23-0.439-0.23c-0.176,0-0.34,0.085-0.439,0.23l-3.406,4.943h-0.093l-3.403-4.945
			c-0.1-0.145-0.264-0.23-0.438-0.23s-0.34,0.086-0.438,0.23l-3.404,4.945h-0.092l-3.404-4.943c-0.1-0.146-0.264-0.231-0.438-0.231
			h-0.002c-0.176,0-0.339,0.086-0.438,0.231l-3.41,4.943h-0.092l-3.405-4.945c-0.101-0.145-0.263-0.23-0.438-0.23
			s-0.34,0.086-0.438,0.23l-3.405,4.945h-0.094l-3.406-4.943c-0.1-0.146-0.263-0.231-0.438-0.231c-0.176,0-0.34,0.086-0.439,0.231
			l-3.404,4.943h-0.092l-3.407-4.943c-0.101-0.146-0.264-0.23-0.439-0.23l0,0c-0.175,0-0.34,0.085-0.438,0.23l-3.409,4.943H46.06
			l-3.404-4.943c-0.1-0.146-0.263-0.231-0.438-0.231c-0.177,0-0.34,0.086-0.439,0.231l-3.406,4.943H38.28l-3.405-4.945
			c-0.1-0.145-0.264-0.23-0.439-0.23s-0.34,0.086-0.438,0.23l-3.405,4.945h-0.092l-3.406-4.943c-0.1-0.146-0.264-0.231-0.439-0.231
			l0,0c-0.176,0-0.34,0.086-0.438,0.231l-3.405,4.943h-0.091l-3.404-4.945c-0.099-0.145-0.265-0.23-0.439-0.23
			c-0.176,0-0.34,0.086-0.439,0.23l-3.404,4.945h-0.093l-3.406-4.943c-0.099-0.146-0.264-0.23-0.439-0.23
			c-0.175,0-0.34,0.085-0.438,0.23l-3.57,5.174c-0.062,0.09-0.094,0.194-0.094,0.304v5.512c0,0.294,0.238,0.533,0.533,0.533h84.94
			c0.295,0,0.533-0.239,0.533-0.533v-5.512c0-0.108-0.033-0.214-0.094-0.304L89.346,73.014z"/>
	</g>
</g>
</svg>
