<?xml version="1.0" encoding="utf-8"?>
<!-- Generator: Adobe Illustrator 16.0.3, SVG Export Plug-In . SVG Version: 6.00 Build 0)  -->
<!DOCTYPE svg PUBLIC "-//W3C//DTD SVG 1.1//EN" "http://www.w3.org/Graphics/SVG/1.1/DTD/svg11.dtd">
<svg version="1.1" id="Layer_1" xmlns="http://www.w3.org/2000/svg" xmlns:xlink="http://www.w3.org/1999/xlink" x="0px" y="0px"
	 width="100px" height="100px" viewBox="0 0 100 100" style="enable-background:new 0 0 100 100;" xml:space="preserve">
<g id="BG">
</g>
<g id="Layer_1_1_">
	<g>
		<path d="M81.271,25.14c-0.506-0.149-1.054-0.21-1.614-0.179l0.293-0.989c1.009-3.426-0.709-6.966-3.832-7.889
			c-0.82-0.242-1.675-0.285-2.507-0.137c-0.37-2.295-1.916-4.192-4.036-4.818l-0.003-0.001c-2.406-0.711-5.02,0.353-6.528,2.513
			c-0.565-0.464-1.212-0.809-1.919-1.018c-1.532-0.452-3.161-0.215-4.588,0.667c-1.395,0.862-2.432,2.245-2.916,3.888
			c-0.271,0.949-0.531,1.857-0.782,2.736c-0.088-0.006-0.177-0.016-0.264-0.016c-0.527,0-1.068,0.098-1.599,0.285v-1.031
			c-0.004-3.572-2.653-6.479-5.91-6.479c-0.855,0-1.686,0.2-2.443,0.58c-1.006-2.096-3.024-3.478-5.237-3.478h-0.003
			c-2.509,0-4.711,1.761-5.548,4.262c-0.675-0.286-1.392-0.433-2.128-0.433c-1.599,0-3.092,0.689-4.211,1.939
			c-1.094,1.222-1.695,2.842-1.695,4.556c0.053,6.436,0.116,11.311,0.19,14.798c-1.027-0.652-2.234-1.012-3.478-1.012
			c-1.335,0-2.619,0.408-3.716,1.172c-1.42,0.997-2.362,2.482-2.663,4.187c-0.301,1.704,0.081,3.424,1.074,4.844l10.215,14.589
			c0.354,0.508,0.47,1.141,0.322,1.739l-5.173,20.688c-0.104,0.414-0.109,0.834-0.013,1.217c0.279,1.131,1.281,1.921,2.438,1.921
			h31.223l15.354,4.536c0.524,0.156,1.059,0.156,1.536-0.002c1.007-0.33,1.687-1.228,1.731-2.278l0.96-22.659
			c1.549-1.311,2.655-2.953,3.213-4.777c0.121-0.334,1.185-3.248,2.707-8.418l5.279-17.896C86.044,29.22,83.869,25.908,81.271,25.14
			z M59.829,17.007c0.696,0.206,1.034,1.217,0.741,2.209l-2.26,7.666v-0.75c-0.002-1.548-0.545-2.896-1.367-3.94
			c0.384-1.352,0.746-2.625,1.065-3.74C58.301,17.467,59.135,16.802,59.829,17.007z M26.21,79.227l4.606-18.422
			c0.297-1.188,0.04-2.428-0.705-3.402L18.954,41.461c-0.295-0.417-0.407-0.922-0.316-1.426c0.087-0.501,0.366-0.94,0.785-1.231
			c0.32-0.229,0.699-0.348,1.091-0.348c0.627,0,1.213,0.307,1.57,0.817l2.572,3.667c2.09,3.008,2.615,3.105,2.967,3.167l1.109,0.204
			v-5.759l-0.002-0.025c-0.164-3.007-0.308-14.141-0.358-20.451c0-1.028,0.611-1.902,1.335-1.902c0.727,0,1.337,0.874,1.337,1.908
			l0.011,15.24c0,1.057,0.724,1.968,1.761,2.221c0.165,0.041,0.339,0.063,0.517,0.063c0.197,0,0.401-0.028,0.603-0.079
			c0.105-0.027,0.212-0.055,0.321-0.077c1.054-0.235,1.805-1.173,1.805-2.235L36.05,16.256c0-0.542,0.169-1.062,0.459-1.429
			c0.145-0.178,0.448-0.482,0.874-0.482c0.728,0,1.341,0.875,1.341,1.909l0.014,18.715c0,1.26,1.024,2.284,2.284,2.284h0.433
			c1.262,0,2.287-1.028,2.287-2.288l-0.013-15.81c0-0.539,0.17-1.059,0.463-1.429c0.145-0.179,0.448-0.483,0.875-0.483
			c0.674,0,1.338,0.793,1.338,1.598l0.013,16.475c0,1.206,0.538,2.1,1.479,2.45c0.101,0.038,0.21,0.083,0.316,0.125
			c0.298,0.129,0.621,0.198,0.935,0.198c0.193,0,0.385-0.025,0.566-0.076c1.007-0.269,1.708-1.181,1.705-2.211l-0.004-9.667
			c-0.003-0.979,0.871-1.66,1.16-1.667c0.291,0.007,1.161,0.684,1.161,1.664l0.013,18.662c0.004,3.371-0.074,6.388-0.142,8.322
			c-0.033,0.983-0.301,1.965-0.77,2.836l-1.479,2.735l-0.174,0.321l0.088,0.355l4.968,19.86H26.21V79.227z M80.617,31.449
			l-5.276,17.9c-0.952,3.234-1.882,6.103-2.493,7.941c-0.313,0.933-0.847,1.798-1.543,2.5l-2.193,2.204l-0.256,0.261l-0.018,0.364
			l-0.867,20.455l-6.062-1.791c-0.011-0.055-0.013-0.106-0.026-0.159l-5.502-22.002c1.115-1.695,1.71-3.584,1.727-5.493
			c0.021-0.354,0.217-3.449,0.215-8.839l-0.006-8.033c0.027,0.001,0.055,0.006,0.082,0.007c0.109,0.003,0.221,0.007,0.33,0.016
			c1.078,0.073,2.063-0.611,2.364-1.63l5.361-18.186c0.153-0.52,0.464-0.97,0.847-1.24c0.189-0.13,0.566-0.336,0.975-0.214
			c0.697,0.206,1.039,1.218,0.746,2.21l-5.293,17.951c-0.354,1.208,0.338,2.481,1.545,2.838l0.414,0.122
			c1.211,0.358,2.485-0.337,2.842-1.545l4.469-15.166c0.152-0.518,0.463-0.968,0.85-1.239c0.189-0.131,0.567-0.336,0.977-0.215
			c0.646,0.191,1.059,1.139,0.83,1.912l-4.656,15.803c-0.342,1.156-0.078,2.166,0.725,2.769c0.086,0.063,0.178,0.137,0.268,0.209
			c0.248,0.208,0.539,0.366,0.84,0.454c0.188,0.056,0.376,0.085,0.564,0.089c1.041,0.027,1.974-0.649,2.263-1.638l2.735-9.271
			c0.273-0.942,1.307-1.346,1.584-1.27C80.251,29.613,80.896,30.509,80.617,31.449z"/>
	</g>
</g>
</svg>
