<svg xmlns="http://www.w3.org/2000/svg" xmlns:xlink="http://www.w3.org/1999/xlink" version="1.1" x="0px" y="0px" viewBox="0 0 60 75" style="enable-background:new 0 0 60 60;" xml:space="preserve"><path d="M9.3,31.5c-0.3-2-1.2-3.3-2.1-3.3c0,0,0,0,0,0c-1,0-1.8,1.3-2.1,3.3l0,0c-0.1,0.7-0.2,1.6,0.3,2.1c0.4,0.5,1.2,0.6,1.8,0.5  c0.6,0,1.4-0.1,1.8-0.6C9.4,33.1,9.4,32.1,9.3,31.5z"/><path d="M17.5,36c0.7-0.8,0.6-2.2,0.4-3.2c-0.5-2.9-1.6-4.7-3.1-4.7c0,0-0.1,0-0.1,0c-1.5,0-2.6,1.8-3.1,4.6l0,0  c-0.2,1-0.3,2.3,0.4,3.2c0.5,0.6,1.4,0.9,2.7,0.9C16.1,36.9,17,36.6,17.5,36z"/><path d="M10.7,28.7c1-1.8,2.4-2.8,4.1-2.7c0,0,0.1,0,0.1,0c1.7,0,3.2,1.1,4.1,3.1c1.1-3.4,3.1-5.4,5.6-5.3c0,0,0.1,0,0.1,0  c2.3,0,4.1,1.8,5.3,5c1.1-3.2,3-5,5.3-5c0,0,0.1,0,0.1,0c0,0,0.1,0,0.1,0c2.3,0,4.3,1.9,5.4,5.3c1-2,2.5-3.2,4.3-3.1  c0,0,0.1,0,0.1,0c1.6,0,3,1,3.9,2.7c0.8-1.7,2-2.7,3.5-2.7c0.1,0,0.1,0,0.2,0c0.8,0,1.5,0.3,2.1,0.8V22c0-0.3-0.1-0.6-0.4-0.8  c-0.2-0.2-0.6-0.3-0.9-0.3C38,23.3,22,23.3,6.3,21c-0.3,0-0.6,0-0.9,0.3C5.1,21.4,5,21.7,5,22v4.8C5.6,26.3,6.4,26,7.2,26  C8.7,26,9.9,27,10.7,28.7z"/><path d="M24.5,39c1.6,0,2.7-0.3,3.4-1.2c0.9-1,1.1-2.7,0.8-5c-0.6-4.2-2.2-6.9-4.1-6.9c0,0,0,0-0.1,0c-1.9,0-3.5,2.7-4.1,6.8l0,0  c-0.4,2.3-0.1,4,0.8,5C21.9,38.7,23,39.1,24.5,39z"/><path d="M52.9,28.2C52.8,28.2,52.8,28.2,52.9,28.2c-1,0-1.8,1.3-2.1,3.3l0,0c-0.1,0.7-0.2,1.6,0.3,2.1c0.4,0.5,1.2,0.6,1.8,0.5  c0.6,0,1.4-0.1,1.8-0.6c0.5-0.5,0.4-1.5,0.3-2.1C54.6,29.4,53.8,28.2,52.9,28.2z"/><path d="M38.9,37.9c0.9-1,1.1-2.7,0.8-5C39,28.6,37.4,26,35.5,26c0,0,0,0-0.1,0c-1.9,0-3.5,2.7-4.1,6.8l0,0c-0.4,2.3-0.1,4,0.8,5  c0.7,0.8,1.9,1.2,3.4,1.2C37,39.1,38.1,38.7,38.9,37.9z"/><path d="M47.9,36c0.7-0.8,0.6-2.2,0.4-3.2c-0.5-2.9-1.7-4.7-3.1-4.7c-1.5,0-2.7,1.7-3.2,4.6l0,0c-0.2,1-0.3,2.3,0.4,3.2  c0.5,0.6,1.4,0.9,2.7,0.9C46.5,36.9,47.4,36.6,47.9,36z"/></svg>