<svg xmlns="http://www.w3.org/2000/svg" xmlns:xlink="http://www.w3.org/1999/xlink" version="1.1" x="0px" y="0px" viewBox="0 0 100 125" enable-background="new 0 0 100 100" xml:space="preserve"><path d="M80.48,36.903c0-13.745-6.199-21.315-17.455-21.315c-3.488,0-6.863,1.015-9.762,2.936c-1.949,1.291-4.43,1.291-6.379,0  c-2.896-1.921-6.271-2.936-9.76-2.936c-6.167,0-10.813,2.204-13.807,6.551c-2.52,3.659-3.798,8.787-3.798,15.241  c0,4.051,0.558,8.59,1.487,13.208h-0.064l0.402,1.823c0.662,3.01,1.597,6.383,2.701,9.781c0.018,0.055,0.035,0.107,0.053,0.162  c0.097,0.297,0.195,0.594,0.295,0.891c0.833,2.512,1.731,4.924,2.664,7.166c0.066,0.162,0.134,0.324,0.201,0.486  c0.066,0.156,0.133,0.314,0.2,0.471c3.085,7.256,6.606,12.973,9.382,12.973c1.26,0,2.328-0.291,3.24-0.814  c0.607-0.35,1.146-0.801,1.625-1.338c0.239-0.268,0.464-0.557,0.676-0.865c2.109-3.08,2.867-8.047,3.566-12.631  c0.521-3.418,1.09-7.146,2.18-9.145c0.496-0.908,1.1-1.459,1.856-1.459c0.653,0,1.187,0.348,1.628,0.955  c1.326,1.818,1.834,5.963,2.328,10.002c0.607,4.953,1.27,10.359,3.734,13.254c1.119,1.316,2.611,2.113,4.641,2.113  c0.178,0,0.363-0.031,0.549-0.078c0.039-0.01,0.078-0.023,0.119-0.035c0.166-0.051,0.336-0.117,0.508-0.203  c0.02-0.01,0.039-0.018,0.059-0.027c1.48-0.756,3.154-2.746,4.855-5.529c0.043-0.068,0.084-0.137,0.127-0.205  c0.164-0.271,0.328-0.551,0.49-0.836c1.896-3.279,3.818-7.496,5.535-12.146c1.57-4.227,2.943-8.703,3.926-12.924l0.428-1.84H78.85  C79.865,45.805,80.48,41.094,80.48,36.903z M22.937,31.656c1.394-8.794,6.035-13.068,14.188-13.068c2.896,0,5.698,0.842,8.103,2.436  c0.405,0.269,0.831,0.492,1.267,0.687c-3.693,1.115-7.467,1.041-12.017-0.889c-0.761-0.323-1.643,0.033-1.966,0.795  c-0.324,0.763,0.032,1.644,0.795,1.967c3.121,1.324,5.938,1.856,8.51,1.856c5.164,0,9.338-2.146,12.999-4.344  c0.023-0.015,0.041-0.033,0.064-0.048c0.014-0.01,0.029-0.016,0.043-0.024c2.404-1.593,5.207-2.436,8.104-2.436  c8.391,0,13.031,4.498,14.188,13.751c0.695,5.562,0.02,11.954-1.371,18.249H60.135v-7.498c0-2.482-2.02-4.503-4.504-4.503H44.637  c-2.483,0-4.503,2.021-4.503,4.503v7.498H24.011C22.64,43.998,22.039,37.322,22.937,31.656z M56.92,68.68  c-0.82-6.682-1.666-13.592-6.935-13.592c-4.997,0-5.972,6.389-7.002,13.15c-0.146,0.953-0.29,1.871-0.438,2.75  c-1.045,6.143-2.316,10.293-5.633,10.352c-0.088-0.033-0.188-0.098-0.287-0.162c-1.205-0.834-3.35-4.229-5.617-9.186  c-0.054-0.117-0.106-0.229-0.16-0.348c-0.047-0.104-0.094-0.213-0.141-0.316c-1.746-3.936-3.528-8.725-4.984-13.818  c-0.105-0.375-0.21-0.75-0.313-1.129c-0.01-0.037-0.021-0.076-0.031-0.113c-0.238-0.883-0.467-1.777-0.684-2.68h18.439V43.089  c0-0.829,0.674-1.503,1.503-1.503h10.994c0.83,0,1.504,0.674,1.504,1.503v10.499h17.98c-0.24,0.945-0.492,1.881-0.754,2.803  c-2.619,9.078-6.363,17.313-9.148,21.705c-0.02,0.031-0.041,0.064-0.061,0.094c-0.145,0.227-0.283,0.432-0.422,0.637  c-0.137,0.203-0.273,0.396-0.406,0.576c-0.01,0.014-0.018,0.027-0.027,0.039c-0.354,0.482-0.682,0.883-0.98,1.195  c-0.01,0.01-0.021,0.021-0.031,0.031c-0.135,0.141-0.264,0.258-0.385,0.359c-0.066,0.057-0.135,0.113-0.197,0.156  c-0.043,0.031-0.084,0.057-0.127,0.082c-0.105,0.064-0.209,0.121-0.303,0.146C58.748,81.371,57.828,76.105,56.92,68.68z"/></svg>