<?xml version="1.0" encoding="utf-8"?>
<!-- Generator: Adobe Illustrator 16.0.3, SVG Export Plug-In . SVG Version: 6.00 Build 0)  -->
<!DOCTYPE svg PUBLIC "-//W3C//DTD SVG 1.1//EN" "http://www.w3.org/Graphics/SVG/1.1/DTD/svg11.dtd">
<svg version="1.1" id="Layer_1" xmlns="http://www.w3.org/2000/svg" xmlns:xlink="http://www.w3.org/1999/xlink" x="0px" y="0px"
	 width="100px" height="100px" viewBox="0 0 100 100" style="enable-background:new 0 0 100 100;" xml:space="preserve">
<g id="BG">
</g>
<g id="Layer_1_1_">
	<g>
		<path d="M95.439,15.69c-0.535-1.505-2.191-2.292-3.696-1.753c-5.519,1.966-14.571,5.163-15.859,5.537
			c-1.302,0.262-2.291,1.397-2.319,2.776l-0.655,31.169l-22.795,5.99v-2.203H26.51v8.272l-9.581,2.463
			c3.999,1.295,6.901,5.054,6.901,9.479c0,0.117-0.006,0.232-0.01,0.35h29.215c-0.094-0.586-0.145-1.187-0.145-1.797
			c0-6.291,5.118-11.408,11.408-11.408c0.137,0,0.271,0.006,0.406,0.011V61.68c2.471-0.668,6.184-1.69,11.824-3.261
			c1.23-0.342,2.092-1.45,2.119-2.728l0.656-31.253c2.219-0.74,6.365-2.193,14.381-5.051C95.191,18.851,95.977,17.195,95.439,15.69z
			"/>
		<path d="M21.35,77.421c0-4.131-3.35-7.479-7.479-7.479c-4.131,0-7.479,3.35-7.479,7.479S9.739,84.9,13.87,84.9
			C18,84.9,21.35,81.552,21.35,77.421z M13.87,80.128c-1.495,0-2.707-1.212-2.707-2.707s1.212-2.707,2.707-2.707
			s2.707,1.212,2.707,2.707S15.365,80.128,13.87,80.128z"/>
		<path d="M73.227,75.973c0-4.931-3.996-8.927-8.927-8.927s-8.928,3.997-8.928,8.927S59.369,84.9,64.3,84.9
			C69.229,84.9,73.227,80.902,73.227,75.973z M64.3,79.204c-1.784,0-3.229-1.446-3.229-3.229c0-1.785,1.445-3.231,3.229-3.231
			c1.783,0,3.229,1.446,3.229,3.231C67.529,77.758,66.083,79.204,64.3,79.204z"/>
		<path d="M24.048,55.76h28.527c0.769,0,1.392-0.623,1.392-1.391v-4.761c0-0.769-0.623-1.391-1.392-1.391H24.048
			c-0.769,0-1.392,0.623-1.392,1.391v4.761C22.656,55.137,23.279,55.76,24.048,55.76z"/>
	</g>
</g>
</svg>
