<?xml version="1.0" encoding="utf-8"?>
<!-- Generator: Adobe Illustrator 16.0.3, SVG Export Plug-In . SVG Version: 6.00 Build 0)  -->
<!DOCTYPE svg PUBLIC "-//W3C//DTD SVG 1.1//EN" "http://www.w3.org/Graphics/SVG/1.1/DTD/svg11.dtd">
<svg version="1.1" id="Layer_1" xmlns="http://www.w3.org/2000/svg" xmlns:xlink="http://www.w3.org/1999/xlink" x="0px" y="0px"
	 width="100px" height="100px" viewBox="0 0 100 100" style="enable-background:new 0 0 100 100;" xml:space="preserve">
<g id="BG">
</g>
<g id="Layer_1_1_">
	<g>
		<path d="M36.271,52.001c-0.087,0.086-0.189,0.156-0.305,0.205C36.081,52.158,36.184,52.088,36.271,52.001z"/>
		<path d="M36.551,51.324c0,0.265-0.107,0.504-0.28,0.677C36.443,51.828,36.551,51.589,36.551,51.324z"/>
		<path d="M35.594,50.367c0.132,0,0.258,0.027,0.372,0.075C35.852,50.394,35.726,50.367,35.594,50.367z"/>
		<path d="M35.594,52.281c-0.133,0-0.258-0.026-0.372-0.075C35.336,52.255,35.461,52.281,35.594,52.281z"/>
		<path d="M35.966,52.206c-0.114,0.049-0.24,0.075-0.372,0.075C35.726,52.281,35.852,52.255,35.966,52.206z"/>
		<path d="M53.296,58.943c-0.048-0.113-0.073-0.24-0.073-0.373l0,0C53.223,58.704,53.248,58.83,53.296,58.943z"/>
		<path d="M55.137,58.572L55.137,58.572c0,0.132-0.027,0.258-0.076,0.373C55.107,58.83,55.137,58.704,55.137,58.572z"/>
		<path d="M54.18,59.529c-0.396,0-0.738-0.242-0.884-0.586C53.441,59.288,53.782,59.529,54.18,59.529
			c0.396,0,0.735-0.241,0.881-0.586C54.915,59.288,54.575,59.529,54.18,59.529z"/>
		<path d="M36.476,50.952c-0.097-0.229-0.28-0.413-0.51-0.509C36.195,50.539,36.379,50.723,36.476,50.952z"/>
		<path d="M35.222,50.442c0.114-0.048,0.239-0.075,0.372-0.075C35.461,50.367,35.336,50.394,35.222,50.442z"/>
		<path d="M35.222,52.206c-0.115-0.048-0.219-0.118-0.305-0.205C35.003,52.088,35.106,52.158,35.222,52.206z"/>
		<path d="M31.354,58.572L31.354,58.572c0,0.208-0.042,0.406-0.118,0.586C31.313,58.979,31.354,58.779,31.354,58.572z"/>
		<path d="M30.438,64.334c0.262-0.177,0.577-0.279,0.917-0.279s0.656,0.104,0.917,0.279c-0.261-0.177-0.577-0.279-0.917-0.279
			S30.699,64.157,30.438,64.334z"/>
		<path d="M28.465,59.158c-0.077-0.18-0.118-0.378-0.118-0.586l0,0C28.347,58.779,28.388,58.979,28.465,59.158z"/>
		<path d="M34.636,51.324c0,0.265,0.107,0.504,0.281,0.677C34.743,51.828,34.636,51.589,34.636,51.324z"/>
		<path d="M35.222,50.442c-0.229,0.097-0.413,0.281-0.51,0.509C34.809,50.723,34.992,50.539,35.222,50.442z"/>
		<path d="M29.772,31.71c1.285,2.225,3.618,3.468,6.015,3.468c0.354,0,0.709-0.027,1.062-0.082c1.006,2.594,3.522,4.435,6.473,4.435
			c2.947,0,5.465-1.841,6.47-4.435c0.354,0.055,0.708,0.082,1.062,0.082c2.398,0,4.729-1.243,6.016-3.468
			c1.475-2.554,1.14-5.654-0.605-7.822c1.745-2.167,2.08-5.268,0.605-7.821c-1.285-2.226-3.616-3.469-6.016-3.469
			c-0.354,0-0.707,0.027-1.062,0.082c-1.005-2.594-3.522-4.435-6.47-4.435c-2.95,0-5.467,1.84-6.473,4.435
			c-0.352-0.055-0.707-0.082-1.062-0.082c-2.397,0-4.729,1.243-6.015,3.469c-1.473,2.553-1.139,5.654,0.606,7.821
			C28.634,26.057,28.3,29.156,29.772,31.71z M43.321,17.451c3.555,0,6.437,2.882,6.437,6.438c0,3.556-2.882,6.438-6.437,6.438
			c-3.557,0-6.439-2.882-6.439-6.438C36.882,20.333,39.765,17.451,43.321,17.451z"/>
		<path d="M50.827,41.199c-3.221,1.962-3.217,4.961-3.001,6.378c1.714-1.57,5.381-4.623,7.746-4.394c0,0-5.163,3.397-7.04,5.638
			c1.104,0.831,3.825,2.347,7.139,0.33c4.341-2.644,2.826-7.173,2.826-7.173S55.167,38.555,50.827,41.199z"/>
		<path d="M34.588,76.212H48.54l-4.137-0.883c-0.927-0.196-1.75-0.435-2.506-0.735c-2.01-0.799-4.668-2.322-4.58-6.33
			c0.084-3.609,3.109-6.547,6.746-6.547c0.089,0,10.58-0.061,17.589-0.061h1.652c0.574,0,1.15,0.044,1.709,0.125
			c-0.076-0.313-0.172-0.616-0.296-0.907c-0.136-0.503-0.323-0.987-0.575-1.435c-0.552-2.981-3.164-5.244-6.311-5.244
			c-0.876,0-1.707,0.176-2.466,0.496c-0.62-0.368-1.3-0.641-2.031-0.783c-0.897-2.463-3.257-4.225-6.03-4.225
			c-0.677,0-1.327,0.11-1.938,0.306v-8.135c-0.666,0.15-1.351,0.232-2.047,0.232c-0.605,0-1.202-0.059-1.783-0.172v7.725
			l-1.811-0.849c-0.864-0.435-1.839-0.682-2.874-0.682c-2.849,0-5.255,1.85-6.099,4.412c-0.548-0.15-1.124-0.235-1.711-0.235
			c-3.186,0-5.822,2.317-6.331,5.352c-2.569,0.576-4.556,2.69-4.947,5.32c-0.752,0.459-1.351,1.139-1.715,1.95
			c2.525,0.172,4.9,1.507,6.354,2.777L34.588,76.212z M53.223,58.572c0-0.066,0.006-0.131,0.019-0.192
			c0.024-0.125,0.075-0.241,0.146-0.343c0.172-0.254,0.463-0.421,0.793-0.421s0.621,0.167,0.793,0.421
			c0.069,0.102,0.118,0.218,0.146,0.343c0.013,0.062,0.021,0.126,0.021,0.192l0,0l0,0c0,0.132-0.027,0.258-0.076,0.373
			c-0.146,0.344-0.484,0.585-0.881,0.585c-0.397,0-0.738-0.241-0.884-0.585C53.248,58.83,53.223,58.704,53.223,58.572L53.223,58.572
			L53.223,58.572z M45.575,56.384c0,0.981-0.795,1.778-1.777,1.778c-0.981,0-1.777-0.796-1.777-1.778
			c0-0.245,0.049-0.479,0.14-0.692c0.271-0.637,0.901-1.084,1.638-1.084c0.737,0,1.368,0.447,1.639,1.084
			C45.525,55.905,45.575,56.139,45.575,56.384z M34.712,50.952c0.097-0.229,0.28-0.413,0.51-0.509
			c0.114-0.048,0.239-0.075,0.372-0.075c0.132,0,0.258,0.027,0.372,0.075c0.229,0.097,0.413,0.282,0.51,0.509
			c0.048,0.114,0.075,0.241,0.075,0.373c0,0.265-0.107,0.504-0.28,0.677c-0.087,0.086-0.189,0.156-0.305,0.205
			c-0.114,0.049-0.24,0.075-0.372,0.075c-0.133,0-0.258-0.026-0.372-0.075c-0.115-0.048-0.219-0.118-0.305-0.205
			c-0.174-0.173-0.281-0.413-0.281-0.677C34.636,51.191,34.663,51.066,34.712,50.952z M32.715,64.777
			c0.118,0.175,0.204,0.373,0.247,0.586c0.021,0.105,0.033,0.218,0.033,0.33c0,0.908-0.734,1.642-1.641,1.642
			s-1.641-0.733-1.641-1.642c0-0.112,0.012-0.224,0.033-0.33c0.044-0.213,0.129-0.412,0.247-0.586
			c0.117-0.176,0.269-0.325,0.443-0.443c0.262-0.177,0.577-0.279,0.917-0.279s0.656,0.104,0.917,0.279
			C32.446,64.452,32.598,64.602,32.715,64.777z M28.347,58.572c0-0.521,0.263-0.978,0.663-1.248
			c0.079-0.055,0.165-0.102,0.255-0.139c0.18-0.076,0.379-0.119,0.586-0.119s0.405,0.043,0.586,0.119
			c0.089,0.037,0.175,0.084,0.255,0.139c0.399,0.271,0.663,0.728,0.663,1.248l0,0l0,0c0,0.208-0.042,0.406-0.118,0.586
			c-0.152,0.359-0.44,0.646-0.8,0.8c-0.181,0.076-0.379,0.118-0.586,0.118s-0.406-0.042-0.586-0.118
			c-0.359-0.153-0.648-0.44-0.8-0.8C28.388,58.979,28.347,58.779,28.347,58.572L28.347,58.572L28.347,58.572z"/>
		<path d="M73.291,70.529l-2.393-2.891c-1.875-2.267-4.658-3.58-7.601-3.584c-6.964-0.012-19.236,0.06-19.236,0.06
			c-2.344,0-4.293,1.858-4.347,4.202c-0.047,2.115,0.932,3.199,3.066,4.047c0.687,0.271,1.4,0.468,2.122,0.621l9.05,1.931
			l-4.081,3.694h-16.04L20.96,69.6l-0.048-0.039l-0.049-0.039c-1.314-1.164-3.432-2.24-5.362-2.24c-1.679,0-2.973,0.895-3.834,1.871
			c-0.889,1.003-1.092,2.125-0.632,3.432c0.427,1.214,1.44,2.57,2.859,3.825L26.287,88.08c1.497,1.408,3.474,2.193,5.529,2.193
			h56.875V70.529H73.291z"/>
	</g>
</g>
</svg>
