<?xml version="1.0" encoding="utf-8"?>
<!-- Generator: Adobe Illustrator 16.0.3, SVG Export Plug-In . SVG Version: 6.00 Build 0)  -->
<!DOCTYPE svg PUBLIC "-//W3C//DTD SVG 1.1//EN" "http://www.w3.org/Graphics/SVG/1.1/DTD/svg11.dtd">
<svg version="1.1" id="Layer_1" xmlns="http://www.w3.org/2000/svg" xmlns:xlink="http://www.w3.org/1999/xlink" x="0px" y="0px"
	 width="100px" height="100px" viewBox="0 0 100 100" style="enable-background:new 0 0 100 100;" xml:space="preserve">
<g id="BG">
</g>
<g id="Layer_1_1_">
	<g>
		<path d="M41.157,68.001l3.276,4.756l3.274-4.756c0.518-0.751,1.372-1.2,2.284-1.2c0.913,0,1.767,0.448,2.284,1.2l3.275,4.757
			l3.276-4.757c0.192-0.281,0.435-0.519,0.706-0.707V42.665c0-0.37-0.301-0.671-0.67-0.671H53.67v-7.931h5.195
			c0.369,0,0.67-0.301,0.67-0.67v-8.156c0-0.37-0.301-0.67-0.67-0.67H40.768c-0.371,0-0.671,0.3-0.671,0.67v8.156
			c0,0.37,0.3,0.67,0.671,0.67h5.194v7.931h-5.194c-0.371,0-0.671,0.301-0.671,0.671v24.424
			C40.517,67.295,40.885,67.604,41.157,68.001z"/>
		<path d="M83.354,68.813c-0.25,0-0.485,0.123-0.627,0.33l-4.869,7.064h-0.131l-4.865-7.064c-0.143-0.207-0.377-0.33-0.629-0.33
			c-0.25,0-0.484,0.123-0.627,0.33l-4.867,7.064h-0.133l-4.864-7.064c-0.144-0.207-0.376-0.33-0.628-0.33s-0.484,0.123-0.627,0.33
			l-4.867,7.064h-0.133l-4.864-7.064c-0.143-0.207-0.377-0.332-0.629-0.332c-0.25,0-0.484,0.125-0.627,0.332L44.5,76.207h-0.132
			l-4.867-7.064c-0.142-0.207-0.376-0.33-0.627-0.33l0,0c-0.251,0-0.485,0.123-0.628,0.33l-4.864,7.064h-0.131l-4.863-7.066
			c-0.143-0.207-0.377-0.33-0.628-0.33c-0.251,0-0.485,0.123-0.628,0.33l-4.864,7.066h-0.132l-4.867-7.064
			c-0.143-0.207-0.377-0.33-0.627-0.33c-0.252,0-0.485,0.123-0.628,0.33l-5.094,7.396c-0.087,0.127-0.134,0.278-0.134,0.432v7.875
			c0,0.421,0.341,0.763,0.761,0.763h77.301v-9.399l-4.867-7.065C83.838,68.936,83.604,68.813,83.354,68.813z"/>
		<g>
			<circle cx="69.825" cy="31.39" r="2.339"/>
			<circle cx="77.938" cy="24.82" r="2.744"/>
			<path d="M86.048,21.399c1.736,0,3.149-1.413,3.149-3.149c0-1.738-1.413-3.15-3.149-3.15c-1.737,0-3.149,1.412-3.149,3.15
				C82.898,19.987,84.311,21.399,86.048,21.399z"/>
			<path d="M86.048,34.811c-1.737,0-3.149,1.413-3.149,3.15c0,1.737,1.412,3.149,3.149,3.149c1.736,0,3.149-1.412,3.149-3.149
				C89.197,36.224,87.784,34.811,86.048,34.811z"/>
			<path d="M77.938,35.216c-1.514,0-2.744,1.231-2.744,2.744c0,1.513,1.23,2.744,2.744,2.744c1.513,0,2.744-1.231,2.744-2.744
				C80.682,36.447,79.449,35.216,77.938,35.216z"/>
			<circle cx="69.825" cy="37.96" r="2.339"/>
			<circle cx="61.715" cy="37.96" r="1.933"/>
			<circle cx="69.825" cy="44.53" r="2.338"/>
			<path d="M77.938,48.356c-1.514,0-2.744,1.231-2.744,2.746c0,1.513,1.23,2.743,2.744,2.743c1.513,0,2.744-1.23,2.744-2.743
				C80.682,49.587,79.449,48.356,77.938,48.356z"/>
			<path d="M86.048,54.521c-1.737,0-3.149,1.412-3.149,3.148c0,1.737,1.412,3.15,3.149,3.15c1.736,0,3.149-1.413,3.149-3.15
				C89.197,55.934,87.784,54.521,86.048,54.521z"/>
		</g>
		<g>
			<circle cx="29.807" cy="31.39" r="2.339"/>
			<path d="M21.695,22.076c1.514,0,2.744,1.231,2.744,2.744c0,1.513-1.23,2.744-2.744,2.744c-1.513,0-2.744-1.23-2.744-2.744
				C18.951,23.308,20.183,22.076,21.695,22.076z"/>
			<path d="M13.584,21.399c-1.736,0-3.148-1.413-3.148-3.149c0-1.738,1.412-3.15,3.148-3.15c1.737,0,3.149,1.412,3.149,3.15
				C16.733,19.987,15.321,21.399,13.584,21.399z"/>
			<path d="M13.584,34.811c1.737,0,3.149,1.413,3.149,3.15c0,1.737-1.412,3.149-3.149,3.149c-1.736,0-3.148-1.412-3.148-3.149
				C10.436,36.224,11.848,34.811,13.584,34.811z"/>
			<path d="M21.695,35.216c1.514,0,2.744,1.231,2.744,2.744c0,1.513-1.23,2.744-2.744,2.744c-1.513,0-2.744-1.231-2.744-2.744
				C18.951,36.447,20.183,35.216,21.695,35.216z"/>
			<circle cx="29.807" cy="37.96" r="2.339"/>
			<circle cx="37.917" cy="37.96" r="1.933"/>
			<circle cx="29.807" cy="44.53" r="2.338"/>
			<path d="M21.695,48.356c1.514,0,2.744,1.231,2.744,2.746c0,1.513-1.23,2.743-2.744,2.743c-1.513,0-2.744-1.23-2.744-2.743
				C18.951,49.587,20.183,48.356,21.695,48.356z"/>
			<path d="M13.584,54.521c1.737,0,3.149,1.412,3.149,3.148c0,1.737-1.412,3.15-3.149,3.15c-1.736,0-3.148-1.413-3.148-3.15
				C10.436,55.934,11.848,54.521,13.584,54.521z"/>
		</g>
	</g>
</g>
</svg>
