<svg xmlns="http://www.w3.org/2000/svg" xmlns:xlink="http://www.w3.org/1999/xlink" version="1.1" x="0px" y="0px" viewBox="0 0 56 70" style="enable-background:new 0 0 56 56;" xml:space="preserve"><path d="M29.913147,16.4101563c-0.390625-0.390625-1.0234375-0.390625-1.4140625,0l-2.2041016,2.2041016l-5.7788086-5.7788086  c-0.2109375-0.2104492-0.5-0.3183594-0.7998047-0.2885742l-6.2624512,0.5821533  c-0.2416992-0.8406372-0.6687622-1.638855-1.329834-2.2999268c-2.0839844-2.0839844-5.4746094-2.0839844-7.5585938,0  s-2.0839844,5.4746094,0,7.5585938c1.0419922,1.0419922,2.4106445,1.5629883,3.7792969,1.5629883  s2.7373047-0.5209961,3.7792969-1.5629883c0.911438-0.911438,1.3998413-2.074707,1.5140381-3.267334l5.7960205-0.5388184  l5.4467773,5.4467773l-2.2041016,2.2041016c-0.390625,0.390625-0.390625,1.0234375,0,1.4140625l21.5883789,21.5883789  c0.9663086,0.9667969,2.2509766,1.4990234,3.6181641,1.4990234c1.3666992,0,2.6518555-0.5322266,3.6181641-1.4990234  c1.9946289-1.9951172,1.9946289-5.2412109,0-7.2363281L29.913147,16.4101563z M10.710022,16.9736328  c-1.3046875,1.3037109-3.4257813,1.3037109-4.7304688,0c-1.3041992-1.3041992-1.3041992-3.4262695,0-4.7304688  c0.6523438-0.6518555,1.5087891-0.9780273,2.3652344-0.9780273s1.7128906,0.3261719,2.3652344,0.9780273  C12.0142212,13.5473633,12.0142212,15.6694336,10.710022,16.9736328z M50.0874634,43.8208008  c-1.1777344,1.1777344-3.2304688,1.1777344-4.4082031,0L24.7979126,22.9394531l4.4082031-4.4082031l20.8813477,20.8813477  C51.3023071,40.6279297,51.3023071,42.6054688,50.0874634,43.8208008z"/></svg>